HIERARCHY
ROOT hip
{
  OFFSET 0 0 0
  CHANNELS 6 Xposition Yposition Zposition Zrotation Yrotation Xrotation
  JOINT abdomen
  {
    OFFSET 0 20.6881 -0.73152
    CHANNELS 3 Zrotation Xrotation Yrotation
    JOINT chest
    {
      OFFSET 0 11.7043 -0.48768
      CHANNELS 3 Zrotation Xrotation Yrotation
      JOINT neck
      {
        OFFSET 0 22.1894 -2.19456
        CHANNELS 3 Zrotation Xrotation Yrotation
        JOINT head
        {
          OFFSET -0.24384 7.07133 1.2192
          CHANNELS 3 Zrotation Xrotation Yrotation
          JOINT leftEye
          {
            OFFSET 4.14528 8.04674 8.04672
            CHANNELS 3 Zrotation Xrotation Yrotation
            End Site
            {
              OFFSET 1 0 0
            }
          }
          JOINT rightEye
          {
            OFFSET -3.6576 8.04674 8.04672
            CHANNELS 3 Zrotation Xrotation Yrotation
            End Site
            {
              OFFSET 1 0 0
            }
          }
        }
      }
      JOINT rCollar
      {
        OFFSET -2.68224 19.2634 -4.8768
        CHANNELS 3 Zrotation Xrotation Yrotation
        JOINT rShldr
        {
          OFFSET -8.77824 -1.95073 1.46304
          CHANNELS 3 Zrotation Xrotation Yrotation
          JOINT rForeArm
          {
            OFFSET -28.1742 -1.7115 0.48768
            CHANNELS 3 Zrotation Xrotation Yrotation
            JOINT rHand
            {
              OFFSET -22.5879 0.773209 7.07136
              CHANNELS 3 Zrotation Xrotation Yrotation
              JOINT rThumb1
              {
                OFFSET -1.2192 -0.487915 3.41376
                CHANNELS 3 Zrotation Xrotation Yrotation
                JOINT rThumb2
                {
                  OFFSET -3.37035 -0.52449 3.41376
                  CHANNELS 3 Zrotation Xrotation Yrotation
                  End Site
                  {
                    OFFSET -1.78271 -1.18214 1.43049
                  }
                }
              }
              JOINT rIndex1
              {
                OFFSET -7.75947 0.938293 5.60832
                CHANNELS 3 Zrotation Xrotation Yrotation
                JOINT rIndex2
                {
                  OFFSET -2.54057 -0.884171 1.56538
                  CHANNELS 3 Zrotation Xrotation Yrotation
                  End Site
                  {
                    OFFSET -1.62519 -0.234802 1.16502
                  }
                }
              }
              JOINT rMid1
              {
                OFFSET -8.24714 1.18213 3.41376
                CHANNELS 3 Zrotation Xrotation Yrotation
                JOINT rMid2
                {
                  OFFSET -3.10165 -0.590103 1.0647
                  CHANNELS 3 Zrotation Xrotation Yrotation
                  End Site
                  {
                    OFFSET -2.48547 -0.328903 0.83742
                  }
                }
              }
              JOINT rRing1
              {
                OFFSET -8.82822 0.546677 1.51678
                CHANNELS 3 Zrotation Xrotation Yrotation
                JOINT rRing2
                {
                  OFFSET -2.60934 -0.819778 -0.0198488
                  CHANNELS 3 Zrotation Xrotation Yrotation
                  End Site
                  {
                    OFFSET -2.33842 -0.294052 0.168128
                  }
                }
              }
              JOINT rPinky1
              {
                OFFSET -8.27202 -0.0477905 -0.4584
                CHANNELS 3 Zrotation Xrotation Yrotation
                JOINT rPinky2
                {
                  OFFSET -1.82734 -0.647385 -0.700984
                  CHANNELS 3 Zrotation Xrotation Yrotation
                  End Site
                  {
                    OFFSET -1.69225 -0.51767 -0.607171
                  }
                }
              }
            }
          }
        }
      }
      JOINT lCollar
      {
        OFFSET 2.68224 19.2634 -4.8768
        CHANNELS 3 Zrotation Xrotation Yrotation
        JOINT lShldr
        {
          OFFSET 8.77824 -1.95073 1.46304
          CHANNELS 3 Zrotation Xrotation Yrotation
          JOINT lForeArm
          {
            OFFSET 28.1742 -1.7115 0.48768
            CHANNELS 3 Zrotation Xrotation Yrotation
            JOINT lHand
            {
              OFFSET 22.5879 0.773209 7.07136
              CHANNELS 3 Zrotation Xrotation Yrotation
              JOINT lThumb1
              {
                OFFSET 1.2192 -0.487915 3.41376
                CHANNELS 3 Zrotation Xrotation Yrotation
                JOINT lThumb2
                {
                  OFFSET 3.37035 -0.52449 3.41376
                  CHANNELS 3 Zrotation Xrotation Yrotation
                  End Site
                  {
                    OFFSET 1.78271 -1.18214 1.43049
                  }
                }
              }
              JOINT lIndex1
              {
                OFFSET 7.75947 0.938293 5.60832
                CHANNELS 3 Zrotation Xrotation Yrotation
                JOINT lIndex2
                {
                  OFFSET 2.54057 -0.884171 1.56538
                  CHANNELS 3 Zrotation Xrotation Yrotation
                  End Site
                  {
                    OFFSET 1.62519 -0.234802 1.16502
                  }
                }
              }
              JOINT lMid1
              {
                OFFSET 8.24714 1.18213 3.41376
                CHANNELS 3 Zrotation Xrotation Yrotation
                JOINT lMid2
                {
                  OFFSET 3.10165 -0.590103 1.0647
                  CHANNELS 3 Zrotation Xrotation Yrotation
                  End Site
                  {
                    OFFSET 2.48547 -0.328903 0.83742
                  }
                }
              }
              JOINT lRing1
              {
                OFFSET 8.82822 0.546677 1.51678
                CHANNELS 3 Zrotation Xrotation Yrotation
                JOINT lRing2
                {
                  OFFSET 2.60934 -0.819778 -0.0198488
                  CHANNELS 3 Zrotation Xrotation Yrotation
                  End Site
                  {
                    OFFSET 2.33842 -0.294052 0.168128
                  }
                }
              }
              JOINT lPinky1
              {
                OFFSET 8.27202 -0.0477905 -0.4584
                CHANNELS 3 Zrotation Xrotation Yrotation
                JOINT lPinky2
                {
                  OFFSET 1.82734 -0.647385 -0.700984
                  CHANNELS 3 Zrotation Xrotation Yrotation
                  End Site
                  {
                    OFFSET 1.69225 -0.51767 -0.607171
                  }
                }
              }
            }
          }
        }
      }
    }
  }
  JOINT rButtock
  {
    OFFSET -8.77824 4.35084 1.2192
    CHANNELS 3 Zrotation Xrotation Yrotation
    JOINT rThigh
    {
      OFFSET 0 -1.70687 -2.19456
      CHANNELS 3 Zrotation Xrotation Yrotation
      JOINT rShin
      {
        OFFSET 0 -36.8199 0.73152
        CHANNELS 3 Zrotation Xrotation Yrotation
        JOINT rFoot
        {
          OFFSET 0.73152 -45.1104 -5.12064
          CHANNELS 3 Zrotation Xrotation Yrotation
          End Site
          {
            OFFSET -1.1221 -3.69964 12.103
          }
        }
      }
    }
  }
  JOINT lButtock
  {
    OFFSET 8.77824 4.35084 1.2192
    CHANNELS 3 Zrotation Xrotation Yrotation
    JOINT lThigh
    {
      OFFSET 0 -1.70687 -2.19456
      CHANNELS 3 Zrotation Xrotation Yrotation
      JOINT lShin
      {
        OFFSET 0 -36.8199 0.73152
        CHANNELS 3 Zrotation Xrotation Yrotation
        JOINT lFoot
        {
          OFFSET -0.73152 -45.1104 -5.12064
          CHANNELS 3 Zrotation Xrotation Yrotation
          End Site
          {
            OFFSET 1.1221 -3.69964 12.103
          }
        }
      }
    }
  }
}
MOTION
Frames:	5
Frame Time:	0.03333
27.935399999999998 62.6484 -28.1719 -176.93386 31.466991 178.933069 0.606452 12.325051 -161.030473 -3.236797 7.634819 157.804593 -1.365866 20.088993 24.796677 -17.587396 -26.389581 -80.280641 0.00086 -0.0 -0.003681 0.00086 -0.0 -0.003681 -155.417357 -2.951491 161.718351 160.499748 -1.896428 -170.703272 -163.313711 48.567984 42.596931 113.850485 -58.725258 108.932997 81.276736 -49.995596 32.239619 -152.892368 -10.986376 120.0824 -138.493917 4.895767 114.863625 -80.581929 56.840445 60.697253 -0.969382 2.779599 0.553198 -163.720421 -6.175809 143.492538 -145.06261 -3.309373 -178.086396 11.480586 13.748962 -7.372423 6.225527 18.789952 5.574345 -10.37579 -25.924385 -11.353331 13.016442 41.249991 -14.799314 -36.17669 47.736355 -50.169257 -56.878393 22.035102 -121.76034 31.678398 10.004382 -12.621118 173.77158 -11.439509 -89.891856 -130.71242 -57.08231 -94.073658 -45.282883 -63.865285 -4.308552 15.028555 38.002602 -12.510801 -7.903181 -24.807777 3.012871 1.396186 12.623944 -2.181638 -0.006491 1.769417 -0.556489 -7.300905 26.539408 -4.021809 -32.026864 83.320012 -6.219654 -14.428773 41.886731 -7.183471 179.998735 75.749421 0.000866 142.138934 12.920597 73.95315 71.399529 11.974847 5.860158 -39.975852 58.51098 -46.507088 -179.99737 75.749421 -0.002164 -147.676638 29.188889 -180.0 160.844745 -88.375871 -75.839248 41.638117 21.580047 67.766316
29.1337 61.1008 -28.024900000000002 -176.758958 31.109304 -179.41096 -0.023913 16.564667 0.005863 6.020309 -10.954445 -3.71969 -14.122185 34.552125 -101.486817 44.797734 18.053121 45.518372 -0.000467 0.0 -0.0005 -0.000467 0.0 -0.0005 -33.831191 -85.666145 -55.248454 104.180816 65.814278 -71.89472 148.73663 54.108035 80.36272 150.224143 -36.052339 141.992751 175.879654 -21.25728 88.494075 121.477165 -67.827791 92.827671 12.216049 -21.784873 -5.119685 170.248257 -47.452339 99.420645 -160.572786 -6.359583 143.197634 80.985486 -77.62919 52.536426 0.001703 0.06378 0.02041 7.442769 26.544427 4.024215 -149.54715 27.153382 -145.547266 0.950662 -2.628359 -2.7958 143.620938 38.233669 -148.081177 -89.09768 -26.214708 -110.520018 -91.642642 40.073031 -74.378818 37.222744 20.643566 -19.159323 78.492772 38.703011 -42.741529 -149.350441 -53.330556 -64.810701 152.315454 -18.947892 -121.430248 -132.783552 -69.567725 -75.970467 -6.908686 -21.624039 2.809609 -2.596224 1.638369 -0.212471 145.111086 -0.668771 178.91878 154.344399 71.873538 -169.596571 133.207582 -16.849425 130.691868 41.153463 -48.656914 42.322461 179.970978 75.749755 0.023879 142.580029 9.065649 -90.160373 -83.609254 0.573683 -93.871312 26.554574 27.881815 -174.484377 -0.001352 0.000749 -0.0 40.755719 -37.215387 -125.060349 -132.768993 -78.337862 -46.248286 46.96405 -3.805391 110.705509
29.787599999999998 60.5467 -27.990900000000003 -176.701115 30.175215 -178.879078 -0.467419 17.002916 0.118061 6.556242 -11.114259 -3.746331 -12.62683 36.51611 -113.774122 44.507307 25.458694 53.201695 0.000613 0.0 0.002239 0.000613 0.0 0.002239 3.444702 -62.740778 -13.276724 143.451831 79.761176 -99.351389 169.802702 82.467189 68.645031 134.660918 -50.698896 127.666551 -2.607633 2.554942 0.457007 -56.901306 27.759227 52.58971 -173.600807 -52.692952 119.891899 24.980246 -20.706898 -9.900752 -0.572356 1.648332 0.320164 11.374515 -24.936558 -1.560258 0.001406 0.06394 0.018939 -151.453816 32.242139 166.533267 -20.14281 -33.37635 -19.315077 -126.645237 -30.772285 -125.612308 83.245814 68.285696 -86.372477 159.379397 -17.863048 -106.459202 26.557161 -31.872715 164.778791 149.711393 14.940266 -140.822122 -83.253946 -50.257081 -33.61661 57.783536 31.421807 -19.401466 173.601596 -52.692808 -119.891521 70.185922 56.877987 -56.520661 161.51976 -9.304159 -143.625202 163.787272 -6.244978 -143.11243 145.100618 -1.521877 178.651723 144.923148 -50.803979 167.347229 -12.989014 44.3441 -10.762789 157.088655 43.464337 148.731204 0.000841 -0.000917 -0.001081 -61.380224 -44.334759 -52.935421 -0.293095 77.491647 -79.870291 171.349331 -38.322026 -83.734399 0.0 0.000149 -0.000423 40.099629 -36.800555 54.57264 107.880231 67.31689 -28.710434 -97.82661 36.453255 -18.296
29.241899999999998 60.53659999999999 -27.625899999999998 -176.822963 31.114814 -178.039872 0.839243 12.852509 -145.508388 -0.27298 8.175747 141.944721 -13.890584 28.328216 -62.215897 42.342151 -10.12582 15.03069 0.003428 -0.0 -0.001744 -0.001648 -0.0 0.004571 -158.513516 -30.701883 167.039714 123.130797 65.951527 -128.88727 -3.470701 -1.952028 90.07006 -9.83157 57.07887 8.183178 -99.394266 37.101081 57.49221 -162.689205 -32.093205 78.497948 -4.707767 7.223442 2.856086 -158.947189 -8.721203 110.053496 23.906226 -61.333391 1.401485 -164.183498 -6.968393 143.453381 -0.000329 -0.01858 -0.005367 -156.173875 -15.218291 173.653648 12.25427 41.424791 10.27806 -3.123917 -11.9094 -4.511155 143.619548 38.232794 -148.079308 -76.751837 -30.4482 -103.666076 6.031117 -16.756221 -108.518714 24.342349 -67.849229 26.078826 -83.253977 -50.258549 -33.61571 150.778209 -4.795322 -116.834651 77.667869 43.031125 -64.538134 -83.669303 -64.405403 -37.013158 39.289654 53.366258 -32.877105 4.589829 20.809445 -4.374324 31.70719 -66.10964 46.281383 60.214738 82.000324 -77.745767 169.008233 80.995165 147.422064 -14.695263 41.855592 -6.8267 -0.002627 0.000742 -0.001314 -61.317284 -49.733252 -180.0 -81.460842 -27.1101 -132.163468 -74.586009 -24.554627 -157.539133 0.000796 -0.000293 -0.0 39.445029 -40.234354 148.283065 102.363677 -13.099424 147.231522 -71.755506 51.756294 -168.310619
26.0317 62.5957 -27.227899999999998 -179.420028 38.27064 -177.177084 0.064286 14.015228 -108.628989 6.133366 5.509451 106.452553 4.053475 38.911642 158.479696 -17.967148 54.444302 159.664092 0.002691 0.0 0.001759 0.002078 -0.0 -0.003937 -151.981417 14.727464 157.381038 -25.759835 26.522237 0.921053 27.934486 -60.22555 -102.403874 142.439096 -44.684224 135.067656 88.928543 -50.830489 37.599672 -160.633249 -27.705062 126.774723 37.217013 -57.917376 -0.640643 168.961621 -52.965648 98.838368 -160.890725 -7.337561 143.344526 -7.502466 26.110488 6.449002 -67.605531 -72.076216 -84.372635 -79.221068 83.057341 97.065933 -80.93932 -51.227267 -79.359679 -79.161528 -53.597647 -79.744539 33.847543 -85.665018 55.265351 91.714767 -33.115624 89.351985 160.50792 -42.381167 62.112499 27.174357 -71.019449 30.147602 162.891452 -0.575768 -89.353291 -19.518434 -57.246873 -21.495046 0.327212 0.529982 -0.186341 65.769675 48.401799 -50.659849 15.423914 32.961083 -11.297775 -6.942624 -10.96933 1.099851 145.063241 -3.307291 178.086496 -12.403286 44.690821 3.860783 -10.624676 35.012374 -9.121708 23.453778 -39.989538 23.632478 -179.995902 75.750245 -0.003371 152.369834 6.880114 0.0 -29.025301 73.077405 -123.143088 32.703608 3.145803 159.315423 -179.992907 75.749316 -0.007318 -154.704765 28.711152 89.437733 89.915681 -2.230523 -48.183426 40.036185 -32.110733 -4.019363
